<?xml version="1.0" encoding="UTF-8"?>
<svg width="24px" height="24px" viewBox="0 0 24 24" version="1.1" xmlns="http://www.w3.org/2000/svg" xmlns:xlink="http://www.w3.org/1999/xlink">
    <!-- Generator: Sketch 53.1 (72631) - https://sketchapp.com -->
    <title>Mask</title>
    <desc>Created with Sketch.</desc>
    <defs>
        <path d="M198.428571,137 L179.571429,137 C178.151786,137 177,138.151786 177,139.571429 L177,158.428571 C177,159.848214 178.151786,161 179.571429,161 L198.428571,161 C199.848214,161 201,159.848214 201,158.428571 L201,139.571429 C201,138.151786 199.848214,137 198.428571,137 Z M195.808929,145.507143 C195.819643,145.657143 195.819643,145.8125 195.819643,145.9625 C195.819643,150.607143 192.283929,155.958929 185.823214,155.958929 C183.830357,155.958929 181.982143,155.380357 180.428571,154.383929 C180.7125,154.416071 180.985714,154.426786 181.275,154.426786 C182.919643,154.426786 184.430357,153.869643 185.635714,152.926786 C184.092857,152.894643 182.796429,151.882143 182.351786,150.489286 C182.892857,150.569643 183.380357,150.569643 183.9375,150.425 C182.330357,150.098214 181.125,148.683929 181.125,146.975 L181.125,146.932143 C181.591071,147.194643 182.1375,147.355357 182.710714,147.376786 C181.731883,146.725698 181.144504,145.62738 181.146429,144.451786 C181.146429,143.798214 181.317857,143.198214 181.623214,142.678571 C183.353571,144.810714 185.951786,146.203571 188.866071,146.353571 C188.367857,143.969643 190.151786,142.035714 192.294643,142.035714 C193.307143,142.035714 194.217857,142.458929 194.860714,143.144643 C195.653571,142.994643 196.414286,142.7 197.089286,142.298214 C196.826786,143.1125 196.275,143.798214 195.546429,144.232143 C196.253571,144.157143 196.939286,143.958929 197.571429,143.685714 C197.094643,144.3875 196.494643,145.008929 195.808929,145.507143 L195.808929,145.507143 Z" id="path-1"></path>
    </defs>
    <g id="Symbols" stroke="none" stroke-width="1" fill="none" fill-rule="evenodd">
        <g id="Page-Elements/Desktop/Footer-XL" transform="translate(-177.000000, -137.000000)">
            <g id="Page-Elements/Mobile/Footer">
                <mask id="mask-2" fill="white">
                    <use xlink:href="#path-1"></use>
                </mask>
                <use id="Mask" fill="#E9E9E9" fill-rule="nonzero" xlink:href="#path-1"></use>
            </g>
        </g>
    </g>
</svg>