<svg xmlns="http://www.w3.org/2000/svg" width="11.681" height="14.001"><path fill="#199c32" d="M5.75 6.74a3.26 3.26 0 0 0 2.38-.98 3.26 3.26 0 0 0 1-2.4 3.26 3.26 0 0 0-1-2.37 3.37 3.37 0 0 0-4.76 0 3.26 3.26 0 0 0-1 2.37 3.26 3.26 0 0 0 1 2.4 3.26 3.26 0 0 0 2.38.97zm-1.8-5.17a2.55 2.55 0 0 1 3.6 0 2.44 2.44 0 0 1 .75 1.8 2.44 2.44 0 0 1-.74 1.8 2.55 2.55 0 0 1-3.6 0 2.44 2.44 0 0 1-.76-1.8 2.44 2.44 0 0 1 .75-1.8zm0 0"/><path fill="#199c32" d="M11.65 10.77a8.33 8.33 0 0 0-.1-.9A6.97 6.97 0 0 0 11.3 9a4.4 4.4 0 0 0-.36-.84 3.13 3.13 0 0 0-.56-.7 2.43 2.43 0 0 0-.8-.5 2.74 2.74 0 0 0-1-.2 1.03 1.03 0 0 0-.55.24c-.16.1-.36.23-.57.36a3.27 3.27 0 0 1-.74.33 2.87 2.87 0 0 1-1.8 0 3.26 3.26 0 0 1-.75-.34c-.22-.13-.4-.26-.58-.36a1.02 1.02 0 0 0-.54-.24 2.73 2.73 0 0 0-1.02.2 2.43 2.43 0 0 0-.8.5 3.13 3.13 0 0 0-.54.7A4.4 4.4 0 0 0 .36 9a7 7 0 0 0-.22.88 8.27 8.27 0 0 0-.1.9c-.03.26-.04.54-.04.82a2.33 2.33 0 0 0 .7 1.76 2.48 2.48 0 0 0 1.77.64H9.2a2.5 2.5 0 0 0 1.8-.64 2.32 2.32 0 0 0 .68-1.76c0-.3 0-.57-.03-.83zm-1.22 2a1.67 1.67 0 0 1-1.22.4H2.48a1.67 1.67 0 0 1-1.2-.4 1.52 1.52 0 0 1-.45-1.18c0-.27 0-.53.03-.78a7.46 7.46 0 0 1 .1-.8 6.16 6.16 0 0 1 .2-.78 3.58 3.58 0 0 1 .3-.68 2.32 2.32 0 0 1 .4-.53 1.6 1.6 0 0 1 .52-.33 1.9 1.9 0 0 1 .65-.12c.02 0 .08.04.16.1.17.1.36.23.58.37a4.06 4.06 0 0 0 .92.42 3.7 3.7 0 0 0 2.31 0 4.07 4.07 0 0 0 .92-.42c.22-.14.4-.26.58-.37.08-.05.13-.08.16-.1a1.9 1.9 0 0 1 .65.12 1.6 1.6 0 0 1 .54.33 2.3 2.3 0 0 1 .4.53 3.57 3.57 0 0 1 .3.68 6.15 6.15 0 0 1 .2.78 7.53 7.53 0 0 1 .1.8c0 .25.02.5.02.77a1.52 1.52 0 0 1-.43 1.16zm0 0"/></svg>