<svg xmlns="http://www.w3.org/2000/svg" width="21.109" height="18.73"><g><g><g><path fill="#fff" stroke="#fff" stroke-width=".7" d="M19.27 2.12a5.14 5.14 0 0 0-8.2.6 7.83 7.83 0 0 0-.5.82 7.82 7.82 0 0 0-.52-.83 5.14 5.14 0 0 0-8.2-.58 6.2 6.2 0 0 0-1.5 4.1 7.58 7.58 0 0 0 2.1 4.98 46.45 46.45 0 0 0 5.2 4.88c.8.67 1.62 1.37 2.5 2.13v.03a.6.6 0 0 0 .8 0l.03-.02c.86-.75 1.68-1.45 2.47-2.12a46.45 46.45 0 0 0 5.22-4.88 7.58 7.58 0 0 0 2.1-4.97 6.2 6.2 0 0 0-1.5-4.1zm-6.6 13.05c-.68.58-1.38 1.18-2.12 1.82-.74-.65-1.44-1.25-2.12-1.83C4.3 11.63 1.55 9.3 1.55 6.23a5 5 0 0 1 1.2-3.32 4 4 0 0 1 3.02-1.35 4.03 4.03 0 0 1 3.3 1.85A7.1 7.1 0 0 1 10 5.22a.6.6 0 0 0 1.12 0 7.1 7.1 0 0 1 .92-1.82 3.95 3.95 0 0 1 6.33-.5 5 5 0 0 1 1.2 3.33c0 3.07-2.75 5.4-6.9 8.94z"/></g></g></g></svg>