<svg xmlns="http://www.w3.org/2000/svg" width="20" height="20" viewBox="0 0 20 20">
  <g id="ring" transform="translate(0)">
    <path id="Path_4" data-name="Path 4" d="M14.374,20a5.572,5.572,0,0,1-1.912-.342,20.385,20.385,0,0,1-7.4-4.718,20.384,20.384,0,0,1-4.718-7.4A5.532,5.532,0,0,1,.06,4.819,5.673,5.673,0,0,1,2.975.666,5.569,5.569,0,0,1,5.642,0a.625.625,0,0,1,.611.494l.981,4.578a.625.625,0,0,1-.169.573L5.388,7.321a16.451,16.451,0,0,0,7.291,7.291l1.676-1.676a.625.625,0,0,1,.573-.169l4.578.981a.625.625,0,0,1,.494.611,5.569,5.569,0,0,1-.666,2.667,5.673,5.673,0,0,1-4.153,2.916,5.559,5.559,0,0,1-.807.059ZM5.142,1.277A4.379,4.379,0,0,0,1.517,7.111,18.956,18.956,0,0,0,12.889,18.484a4.379,4.379,0,0,0,5.834-3.626L15,14.06l-1.751,1.751a.625.625,0,0,1-.708.124A17.7,17.7,0,0,1,4.066,7.46a.625.625,0,0,1,.124-.708L5.94,5Z" transform="translate(0 0)" fill="#fff"/>
    <path id="Path_5" data-name="Path 5" d="M249.77,10.359a.609.609,0,0,1-.609-.609,8.541,8.541,0,0,0-8.531-8.531.609.609,0,0,1,0-1.219,9.75,9.75,0,0,1,9.75,9.75A.609.609,0,0,1,249.77,10.359Z" transform="translate(-230.378)" fill="#fff"/>
    <path id="Path_6" data-name="Path 6" d="M247.332,71.922a.609.609,0,0,1-.609-.609,6.1,6.1,0,0,0-6.094-6.093.609.609,0,0,1,0-1.219,7.32,7.32,0,0,1,7.312,7.312A.609.609,0,0,1,247.332,71.922Z" transform="translate(-230.378 -61.563)" fill="#fff"/>
    <path id="Path_7" data-name="Path 7" d="M244.895,133.484a.609.609,0,0,1-.609-.609,3.66,3.66,0,0,0-3.656-3.656.609.609,0,0,1,0-1.219,4.88,4.88,0,0,1,4.875,4.875A.609.609,0,0,1,244.895,133.484Z" transform="translate(-230.552 -122.951)" fill="#fff"/>
  </g>
</svg>
