<?xml version="1.0" encoding="UTF-8"?>
<svg width="24px" height="24px" viewBox="0 0 24 24" version="1.1" xmlns="http://www.w3.org/2000/svg" xmlns:xlink="http://www.w3.org/1999/xlink">
    <!-- Generator: Sketch 53.1 (72631) - https://sketchapp.com -->
    <title>Mask</title>
    <desc>Created with Sketch.</desc>
    <defs>
        <path d="M237.285714,137 L216.708929,137 C215.766071,137 215,137.776786 215,138.730357 L215,159.269643 C215,160.223214 215.766071,161 216.708929,161 L237.285714,161 C238.228571,161 239,160.223214 239,159.269643 L239,138.730357 C239,137.776786 238.228571,137 237.285714,137 Z M222.253571,157.571429 L218.696429,157.571429 L218.696429,146.117857 L222.258929,146.117857 L222.258929,157.571429 L222.253571,157.571429 Z M220.475,144.553571 C219.333929,144.553571 218.4125,143.626786 218.4125,142.491071 C218.4125,141.355357 219.333929,140.428571 220.475,140.428571 C221.610714,140.428571 222.5375,141.355357 222.5375,142.491071 C222.5375,143.632143 221.616071,144.553571 220.475,144.553571 L220.475,144.553571 Z M235.5875,157.571429 L232.030357,157.571429 L232.030357,152 C232.030357,150.671429 232.003571,148.9625 230.182143,148.9625 C228.328571,148.9625 228.044643,150.408929 228.044643,151.903571 L228.044643,157.571429 L224.4875,157.571429 L224.4875,146.117857 L227.9,146.117857 L227.9,147.682143 L227.948214,147.682143 C228.425,146.782143 229.5875,145.833929 231.317857,145.833929 C234.917857,145.833929 235.5875,148.207143 235.5875,151.292857 L235.5875,157.571429 L235.5875,157.571429 Z" id="path-1"></path>
    </defs>
    <g id="Symbols" stroke="none" stroke-width="1" fill="none" fill-rule="evenodd">
        <g id="Page-Elements/Desktop/Footer-XL" transform="translate(-215.000000, -137.000000)">
            <g id="Page-Elements/Mobile/Footer">
                <mask id="mask-2" fill="white">
                    <use xlink:href="#path-1"></use>
                </mask>
                <use id="Mask" fill="#E9E9E9" fill-rule="nonzero" xlink:href="#path-1"></use>
            </g>
        </g>
    </g>
</svg>