<svg xmlns="http://www.w3.org/2000/svg" width="27.599" height="32.979" viewBox="0 0 27.599 32.979">
  <g id="man-avatar" transform="translate(0.35 0.35)">
    <path id="Path_2" data-name="Path 2" d="M94.76,15.632a7.437,7.437,0,0,0,5.465-2.29,7.606,7.606,0,0,0,2.264-5.526,7.607,7.607,0,0,0-2.264-5.526,7.666,7.666,0,0,0-10.929,0,7.606,7.606,0,0,0-2.264,5.526A7.606,7.606,0,0,0,89.3,13.342,7.439,7.439,0,0,0,94.76,15.632Zm-4.135-12a5.8,5.8,0,0,1,8.27,0,5.683,5.683,0,0,1,1.713,4.181A5.682,5.682,0,0,1,98.9,12a5.8,5.8,0,0,1-8.27,0,5.681,5.681,0,0,1-1.714-4.182A5.682,5.682,0,0,1,90.625,3.634Zm0,0" transform="translate(-81.515 0)" fill="#0d4284" stroke="#0d4284" stroke-width="0.7"/>
    <path id="Path_3" data-name="Path 3" d="M26.834,256.594a19.424,19.424,0,0,0-.261-2.05,16.242,16.242,0,0,0-.5-2.062,10.218,10.218,0,0,0-.842-1.923,7.242,7.242,0,0,0-1.27-1.665,5.594,5.594,0,0,0-1.824-1.153,6.268,6.268,0,0,0-2.328-.424,2.355,2.355,0,0,0-1.262.539c-.378.248-.821.536-1.315.853a7.509,7.509,0,0,1-1.7.754,6.566,6.566,0,0,1-4.162,0,7.487,7.487,0,0,1-1.7-.754c-.489-.315-.932-.6-1.316-.854a2.353,2.353,0,0,0-1.262-.539,6.26,6.26,0,0,0-2.328.425,5.589,5.589,0,0,0-1.824,1.153,7.244,7.244,0,0,0-1.269,1.665,10.238,10.238,0,0,0-.842,1.923,16.28,16.28,0,0,0-.5,2.061A19.291,19.291,0,0,0,.064,256.6c-.043.62-.064,1.265-.064,1.916a5.407,5.407,0,0,0,1.59,4.077,5.7,5.7,0,0,0,4.1,1.5H21.212a5.7,5.7,0,0,0,4.1-1.5,5.4,5.4,0,0,0,1.59-4.077C26.9,257.857,26.877,257.212,26.834,256.594Zm-2.828,4.616a3.839,3.839,0,0,1-2.795.98H5.687a3.839,3.839,0,0,1-2.795-.98,3.531,3.531,0,0,1-1-2.7c0-.608.02-1.208.06-1.785a17.4,17.4,0,0,1,.236-1.847,14.358,14.358,0,0,1,.441-1.817,8.333,8.333,0,0,1,.685-1.563,5.369,5.369,0,0,1,.933-1.231,3.711,3.711,0,0,1,1.213-.759,4.324,4.324,0,0,1,1.488-.289c.066.035.184.1.375.228.388.255.836.545,1.331.864a9.331,9.331,0,0,0,2.135.96,8.442,8.442,0,0,0,5.324,0,9.342,9.342,0,0,0,2.137-.961c.506-.326.942-.608,1.33-.863.191-.125.309-.193.375-.228a4.327,4.327,0,0,1,1.488.289,3.716,3.716,0,0,1,1.213.759,5.355,5.355,0,0,1,.933,1.231,8.306,8.306,0,0,1,.686,1.563,14.324,14.324,0,0,1,.441,1.817,17.549,17.549,0,0,1,.236,1.847h0c.04.574.06,1.174.061,1.784A3.531,3.531,0,0,1,24.006,261.21Zm0,0" transform="translate(0 -231.813)" fill="#0d4284" stroke="#0d4284" stroke-width="0.7"/>
  </g>
</svg>
