<svg xmlns="http://www.w3.org/2000/svg" width="35.219" height="32.279"><path fill="#0d4284" d="M33.77 5.88H6.23l-.4-4.56A1.45 1.45 0 004.38 0H1.45a1.45 1.45 0 100 2.9h1.61c.89 9.83-1.4-15.6 1.67 18.53A5.56 5.56 0 006.8 25.2a4.38 4.38 0 107.58 1.2h7.91a4.38 4.38 0 104.12-2.9H10.27a2.69 2.69 0 01-2.47-1.62l23.12-1.36a1.45 1.45 0 001.32-1.1l2.93-11.75a1.45 1.45 0 00-1.4-1.8zm-23.5 23.5a1.5 1.5 0 111.48-1.49 1.5 1.5 0 01-1.49 1.5zm16.16 0a1.5 1.5 0 111.49-1.49 1.5 1.5 0 01-1.5 1.5zm3.26-11.68L7.4 19 6.5 8.78h25.43z"/></svg>