<svg xmlns="http://www.w3.org/2000/svg" width="34.461" height="30.527" viewBox="0 0 34.461 30.527">
  <g id="heart" transform="translate(0.35 -29.486)">
    <g id="Group_2" data-name="Group 2" transform="translate(0 29.836)">
      <path id="Path_8" data-name="Path 8" d="M31.3,32.766a8.5,8.5,0,0,0-13.577.977,12.945,12.945,0,0,0-.84,1.363,12.934,12.934,0,0,0-.84-1.363,8.5,8.5,0,0,0-13.577-.977A10.234,10.234,0,0,0,0,39.563c0,2.809,1.1,5.422,3.452,8.223a76.843,76.843,0,0,0,8.639,8.071c1.306,1.113,2.658,2.265,4.1,3.523l.043.038a.989.989,0,0,0,1.3,0l.043-.038c1.438-1.258,2.789-2.41,4.1-3.523a76.831,76.831,0,0,0,8.638-8.071c2.355-2.8,3.452-5.414,3.452-8.223A10.234,10.234,0,0,0,31.3,32.766ZM20.388,54.351c-1.126.96-2.285,1.947-3.508,3.01-1.222-1.062-2.381-2.05-3.508-3.01C6.511,48.5,1.978,44.641,1.978,39.563a8.259,8.259,0,0,1,1.969-5.489,6.6,6.6,0,0,1,5.021-2.26,6.669,6.669,0,0,1,5.458,3.072A11.727,11.727,0,0,1,15.94,37.9a.989.989,0,0,0,1.881,0,11.728,11.728,0,0,1,1.514-3.011,6.528,6.528,0,0,1,10.479-.813,8.259,8.259,0,0,1,1.969,5.489C31.783,44.641,27.25,48.5,20.388,54.351Z" transform="translate(0 -29.836)" fill="#0d4284" stroke="#0d4284" stroke-width="0.7"/>
    </g>
  </g>
</svg>
