<svg xmlns="http://www.w3.org/2000/svg" width="46.559" height="41.649"><g opacity=".099"><g data-name="Group 146"><g data-name="Group 145"><path d="M25.83 8.37a.9.9 0 01-.91-.91V4.55A4.55 4.55 0 0129.46 0h12.56a4.55 4.55 0 014.54 4.55v10.9A4.55 4.55 0 0142.02 20h-5.89c.2 6.8 2.79 10.33 7.86 10.8a.9.9 0 01.83.9v9.04a.9.9 0 01-.91.9h-.05c-6.27-.34-11.05-2.5-14.22-6.4-3.13-3.86-4.72-9.5-4.72-16.77v-3.25a.9.9 0 111.82 0v3.25c0 13.34 5.32 20.31 16.26 21.3V32.5a9.09 9.09 0 01-6.37-3.83c-1.55-2.25-2.33-5.47-2.33-9.57a.9.9 0 01.9-.9h6.82a2.73 2.73 0 002.72-2.74V4.55a2.73 2.73 0 00-2.72-2.73H29.46a2.73 2.73 0 00-2.72 2.73v2.9a.9.9 0 01-.91.92z" data-name="Path 659"/></g></g><g data-name="Group 148"><g data-name="Group 147"><path d="M4.55 0H17.1a4.55 4.55 0 014.55 4.55v10.9A4.55 4.55 0 0117.1 20h-5.88c.2 6.8 2.78 10.33 7.85 10.8a.9.9 0 01.83.9v9.04a.9.9 0 01-.9.9h-.06c-6.26-.34-11.05-2.5-14.22-6.4C1.6 31.38 0 25.74 0 18.47V4.55A4.55 4.55 0 014.55 0zM1.82 18.47c0 13.34 5.32 20.31 16.26 21.3V32.5a9.09 9.09 0 01-6.36-3.83c-1.55-2.25-2.34-5.47-2.34-9.58a.9.9 0 01.91-.9h6.81a2.73 2.73 0 002.73-2.73V4.55a2.73 2.73 0 00-2.73-2.73H6.18v6.73a.9.9 0 01-1.81 0V1.83a2.73 2.73 0 00-2.55 2.72z" data-name="Path 660"/></g></g><g data-name="Group 150"><g data-name="Group 149"><path d="M5.27 10.8a.91.91 0 11-.9.91.9.9 0 01.9-.91z" data-name="Path 661"/></g></g><g data-name="Group 152"><g data-name="Group 151"><path d="M25.83 10.43a.9.9 0 01.9.9v.02a.9.9 0 11-1.81 0v-.01a.9.9 0 01.9-.91z" data-name="Path 662"/></g></g></g></svg>