<svg xmlns="http://www.w3.org/2000/svg" width="14.3" height="14.3"><g fill="#199c32" stroke="#199c32" stroke-width=".3"><path d="M5.67 12.4H1.6a1.46 1.46 0 0 1-1.45-1.45v-7.6A1.46 1.46 0 0 1 1.6 1.9h1.16a.3.3 0 0 1 0 .58H1.6a.88.88 0 0 0-.87.87v7.6a.88.88 0 0 0 .87.87h4.07a.3.3 0 0 1 0 .6z"/><path d="M9.77 5.38a.3.3 0 0 1-.3-.3V3.35a.87.87 0 0 0-.86-.87H7.46a.3.3 0 1 1 0-.58H8.6a1.45 1.45 0 0 1 1.46 1.44V5.1a.3.3 0 0 1-.3.28z"/><path d="M6.85 3.64h-3.5a.87.87 0 0 1-.86-.88V1.6a.3.3 0 0 1 .28-.3h.9a1.45 1.45 0 0 1 2.85 0h.9a.3.3 0 0 1 .3.3v1.16a.87.87 0 0 1-.88.88zM3.07 1.9v.86a.3.3 0 0 0 .3.3h3.48a.3.3 0 0 0 .3-.3V1.9h-.88a.3.3 0 0 1-.3-.3.87.87 0 0 0-1.74 0 .3.3 0 0 1-.3.3z"/><path d="M10.37 14.15a3.78 3.78 0 1 1 3.78-3.78 3.78 3.78 0 0 1-3.78 3.78zm0-6.97a3.2 3.2 0 1 0 3.2 3.2 3.2 3.2 0 0 0-3.2-3.2z"/><path d="M10.36 12.4a.3.3 0 0 1-.3-.28v-3.5a.3.3 0 1 1 .6 0v3.5a.3.3 0 0 1-.3.3z"/><path d="M12.12 10.65h-3.5a.3.3 0 0 1 0-.58h3.5a.3.3 0 0 1 0 .58z"/><path d="M8 5.4H2.17a.3.3 0 1 1 0-.58h5.8a.3.3 0 1 1 0 .58z"/><path d="M6.25 7.15H2.18a.3.3 0 1 1 0-.58h4.07a.3.3 0 1 1 0 .58z"/><path d="M5.1 8.9H2.17a.3.3 0 0 1 0-.58h2.9a.3.3 0 0 1 0 .58z"/></g></svg>